<?xml version="1.0" encoding="UTF-8"?>
<svg width="128" height="128" viewBox="0 0 128 128" xmlns="http://www.w3.org/2000/svg">
  <!-- Background -->
  <rect width="128" height="128" rx="16" fill="#1e3a5f"/>
  
  <!-- Perl Camel silhouette (simplified) -->
  <g transform="translate(20, 20)">
    <path d="M 44 20 C 38 20 34 24 34 30 L 34 50 C 30 52 26 56 26 62 L 26 68 C 26 72 28 74 32 74 L 36 74 L 36 80 C 36 84 38 86 42 86 L 46 86 C 50 86 52 84 52 80 L 52 74 L 56 74 C 60 74 62 72 62 68 L 62 62 C 62 56 58 52 54 50 L 54 30 C 54 24 50 20 44 20 Z" 
          fill="#ffffff" opacity="0.9"/>
  </g>
  
  <!-- "P" letter -->
  <text x="64" y="90" font-family="Arial, sans-serif" font-size="64" font-weight="bold" text-anchor="middle" fill="#39b54a">P</text>
</svg>